<svg width="175" height="40" viewBox="0 0 175 40" fill="none" xmlns="http://www.w3.org/2000/svg">
<path d="M0 38.1488V0H12.1763L28.2197 31.9823H29.9442L28.899 32.9229V0H35.9017V38.1488H23.6732L7.62976 6.16652H5.85296L6.89814 5.22586V38.1488H0Z" fill="#1876D2"/>
<path d="M55.7697 39.1417C53.2613 39.1417 51.049 38.7411 49.1329 37.9398C47.2167 37.1385 45.5967 36.0584 44.2728 34.6997C42.949 33.3062 41.9386 31.7384 41.2418 29.9964C40.5799 28.2545 40.2489 26.4429 40.2489 24.5616V23.4641C40.2489 21.5131 40.5973 19.6667 41.2941 17.9247C42.0257 16.1479 43.0535 14.5802 44.3774 13.2214C45.7361 11.8279 47.3735 10.7479 49.2897 9.98139C51.2058 9.1801 53.3658 8.77945 55.7697 8.77945C58.1736 8.77945 60.3337 9.1801 62.2498 9.98139C64.166 10.7479 65.786 11.8279 67.1099 13.2214C68.4686 14.5802 69.4963 16.1479 70.1931 17.9247C70.8899 19.6667 71.2383 21.5131 71.2383 23.4641V24.5616C71.2383 26.4429 70.8899 28.2545 70.1931 29.9964C69.5312 31.7384 68.5383 33.3062 67.2144 34.6997C65.8905 36.0584 64.2705 37.1385 62.3543 37.9398C60.4382 38.7411 58.2433 39.1417 55.7697 39.1417ZM55.7697 32.9229C57.5465 32.9229 59.0446 32.5397 60.264 31.7732C61.4833 30.9719 62.4066 29.9093 63.0337 28.5855C63.6608 27.2267 63.9743 25.6938 63.9743 23.9867C63.9743 22.2448 63.6434 20.7118 62.9814 19.3879C62.3543 18.0292 61.4137 16.9666 60.1595 16.2002C58.9401 15.3989 57.4769 14.9982 55.7697 14.9982C54.0626 14.9982 52.582 15.3989 51.3278 16.2002C50.1084 16.9666 49.1677 18.0292 48.5058 19.3879C47.8438 20.7118 47.5129 22.2448 47.5129 23.9867C47.5129 25.6938 47.8264 27.2267 48.4535 28.5855C49.1155 29.9093 50.0561 30.9719 51.2755 31.7732C52.4949 32.5397 53.9929 32.9229 55.7697 32.9229Z" fill="#1876D2"/>
<path d="M74.9858 38.1488V9.77236H80.7342V14.8284C80.7342 13.5872 81.1968 12.5421 82.6992 11.1703C84.4972 9.52866 87.493 9.77236 90.8724 9.77236H91.9176V15.1027H89.9318C87.493 15.1027 85.5943 16.3918 84.2356 17.7157C82.9117 19.0047 82.2497 20.886 82.2497 23.3596V38.1488H74.9858Z" fill="#1876D2"/>
<path d="M109.723 38.5146C107.11 38.5146 104.95 38.1836 103.243 37.5217C101.57 36.8249 100.316 35.6752 99.48 34.0726C98.6438 32.4352 98.2258 30.2403 98.2258 27.488L98.278 1.77679H105.072L105.019 27.9584C105.019 29.3519 105.385 30.4319 106.117 31.1984C106.883 31.93 107.963 32.2958 109.357 32.2958H113.799V38.5146H109.723ZM93.7315 15.1027V9.77236H113.799V15.1027H93.7315Z" fill="#1876D2"/>
<path d="M129.563 39.0372C126.289 39.0372 123.745 37.9572 121.934 35.7972C120.157 33.6371 119.268 30.4319 119.268 26.1816V9.7201H126.532V26.8087C126.532 28.5506 127.02 29.9442 127.996 30.9894C128.971 31.9997 130.295 32.5049 131.967 32.5049C133.64 32.5049 134.998 31.9649 136.043 30.8848C137.123 29.8048 137.663 28.3416 137.663 26.4951V9.7201H144.927V39.0372H139.179V31.1592C139.152 31.9431 139.911 33.182 139.179 35.0982C138.447 37.0143 137.571 37.7569 136.043 38.4101C134.501 38.998 132.072 39.0372 129.877 39.0372H129.563Z" fill="#1876D2"/>
<path d="M161.738 39.0372C157.836 39.0372 154.77 38.2185 152.54 36.581C150.345 34.9088 149.195 32.6094 149.091 29.6829H155.623C155.728 30.6584 156.268 31.5468 157.243 32.3481C158.219 33.1494 159.752 33.55 161.842 33.55C163.584 33.55 164.96 33.2365 165.97 32.6094C167.016 31.9823 167.538 31.1287 167.538 30.0487C167.538 29.108 167.138 28.359 166.336 27.8016C165.57 27.2442 164.246 26.8783 162.365 26.7042L159.856 26.4429C156.686 26.0945 154.247 25.1887 152.54 23.7254C150.833 22.2622 149.979 20.3112 149.979 17.8724C149.979 15.9215 150.467 14.284 151.443 12.9601C152.418 11.6363 153.759 10.6433 155.467 9.98139C157.208 9.28461 159.194 8.93622 161.424 8.93622C164.908 8.93622 167.73 9.70268 169.89 11.2356C172.05 12.7685 173.182 15.0156 173.287 17.977H166.754C166.685 17.0015 166.197 16.1653 165.291 15.4686C164.385 14.7718 163.079 14.4234 161.372 14.4234C159.839 14.4234 158.654 14.7195 157.818 15.3118C156.982 15.904 156.564 16.6705 156.564 17.6112C156.564 18.517 156.895 19.2138 157.557 19.7015C158.254 20.1892 159.368 20.5202 160.901 20.6944L163.41 20.9557C166.754 21.3041 169.367 22.2273 171.249 23.7254C173.165 25.2235 174.123 27.2442 174.123 29.7874C174.123 31.6687 173.6 33.3062 172.555 34.6997C171.545 36.0584 170.116 37.121 168.27 37.8875C166.423 38.654 164.246 39.0372 161.738 39.0372Z" fill="#1876D2"/>
</svg>
