<svg width="32" height="32" viewBox="0 0 32 32" fill="none" xmlns="http://www.w3.org/2000/svg">
<path d="M29.3331 11.8386C29.2439 9.7825 28.9939 8.44398 28.2935 7.38512C27.8906 6.77595 27.3902 6.24612 26.8147 5.81958C25.2594 4.66667 23.0651 4.66667 18.6768 4.66667H13.3238C8.93548 4.66667 6.74129 4.66667 5.18593 5.81958C4.61051 6.24612 4.11 6.77595 3.70707 7.38512C3.00679 8.44386 2.75679 9.78221 2.66755 11.8379C2.65228 12.1894 2.95508 12.4583 3.28685 12.4583C5.13456 12.4583 6.63243 14.044 6.63243 16C6.63243 17.956 5.13456 19.5416 3.28685 19.5416C2.95508 19.5416 2.65228 19.8105 2.66755 20.1621C2.75679 22.2179 3.00679 23.5561 3.70707 24.6149C4.11 25.224 4.61051 25.7539 5.18593 26.1804C6.74129 27.3333 8.93548 27.3333 13.3239 27.3333H18.6768C23.0651 27.3333 25.2594 27.3333 26.8147 26.1804C27.3902 25.7539 27.8906 25.224 28.2935 24.6149C28.9939 23.556 29.2439 22.2175 29.3331 20.1615V11.8386Z" stroke="#43D2CB" stroke-width="1.5" stroke-linejoin="round"/>
<path d="M17.3335 16H22.6668" stroke="#43D2CB" stroke-width="1.5" stroke-linecap="round" stroke-linejoin="round"/>
<path d="M12 21.3333H22.6667" stroke="#43D2CB" stroke-width="1.5" stroke-linecap="round" stroke-linejoin="round"/>
</svg>
