<svg width="32" height="32" viewBox="0 0 32 32" fill="none" xmlns="http://www.w3.org/2000/svg">
<path d="M28.9477 12.5161C29.1204 13.1933 29.233 13.8953 29.2796 14.6161C29.351 15.7239 29.351 16.8711 29.2796 17.9789C28.914 23.6399 24.4713 28.1491 18.894 28.5201C16.9912 28.6467 15.0046 28.6464 13.1057 28.5201C12.4518 28.4765 11.739 28.3204 11.1252 28.0673C10.4422 27.7859 10.1006 27.6451 9.92709 27.6664C9.75353 27.6879 9.5017 27.8736 8.99807 28.2453C8.11007 28.9007 6.99139 29.3713 5.33241 29.3309C4.49351 29.3105 4.07407 29.3003 3.88629 28.9799C3.69851 28.6595 3.93238 28.2159 4.40011 27.3288C5.04882 26.0985 5.45985 24.6901 4.83705 23.5616C3.76441 21.9497 2.8533 20.0407 2.72015 17.9789C2.64862 16.8711 2.64862 15.7239 2.72015 14.6161C3.08571 8.95517 7.52835 4.44597 13.1057 4.07495C13.6206 4.04068 14.1421 4.01569 14.6665 4" stroke="#D2B843" stroke-width="1.5" stroke-linecap="round" stroke-linejoin="round"/>
<path d="M11.3335 20H20.6668M11.3335 13.3333H16.0002" stroke="#D2B843" stroke-width="1.5" stroke-linecap="round" stroke-linejoin="round"/>
<path d="M18.6665 6H29.3332M18.6665 6C18.6665 5.06636 21.3256 3.32205 21.9998 2.66667M18.6665 6C18.6665 6.93364 21.3256 8.67796 21.9998 9.33334" stroke="#D2B843" stroke-width="1.4" stroke-linecap="round" stroke-linejoin="round"/>
</svg>
