<svg width="32" height="32" viewBox="0 0 32 32" fill="none" xmlns="http://www.w3.org/2000/svg">
<path d="M3.3335 16C3.3335 10.0289 3.3335 7.04331 5.18848 5.18831C7.04348 3.33333 10.029 3.33333 16.0002 3.33333C21.9712 3.33333 24.9568 3.33333 26.8119 5.18831C28.6668 7.04331 28.6668 10.0289 28.6668 16C28.6668 21.9711 28.6668 24.9567 26.8119 26.8117C24.9568 28.6667 21.9712 28.6667 16.0002 28.6667C10.029 28.6667 7.04348 28.6667 5.18848 26.8117C3.3335 24.9567 3.3335 21.9711 3.3335 16Z" stroke="#59BCDD" stroke-width="1.8" stroke-linejoin="round"/>
<path d="M16.0103 14.0109C14.9057 14.0109 14.0103 14.9064 14.0103 16.0109C14.0103 17.1155 14.9057 18.0109 16.0103 18.0109C17.1148 18.0109 18.0103 17.1155 18.0103 16.0109C18.0103 14.9064 17.1148 14.0109 16.0103 14.0109ZM16.0103 14.0109V9.33203M20.0195 20.0264L17.4213 17.4283" stroke="#59BCDD" stroke-width="1.8" stroke-linecap="round" stroke-linejoin="round"/>
</svg>
